# xmcd
#
# Track frame offsets:
#	150
#	20737
#	38327
#	50130
#	68400
#
# Disc length: 1182 seconds
# Revision: 1
# Processed by: cddbd v1.5.2PL0 Copyright (c) Steve Scherf et al.
# Submitted via: dBpowerAMP V12.0
#
DISCID=38049c05
DTITLE=Matraca Berg - Guns In My Head...And Others
DYEAR=1994
DGENRE=Country
TTITLE0=Guns In My Head
TTITLE1=Slow Poison [Live At KTCZ, Minneapolis]
TTITLE2=Richland Women Blues [Live At KCRW, Los Angeles]
TTITLE3=Tall Drink Of Water [Live At WDET, Detroit
TTITLE4=Guns In My Head [Live In Nashville]
EXTD=
EXTT0=
EXTT1=
EXTT2=
EXTT3=
EXTT4=
PLAYORDER=
